<svg xmlns="http://www.w3.org/2000/svg" version="1.1" xmlns:xlink="http://www.w3.org/1999/xlink" xmlns:svgjs="http://svgjs.dev/svgjs" width="1000" height="803" viewBox="0 0 1000 803"><g transform="matrix(1,0,0,1,0,0)"><svg viewBox="0 0 448 360" data-background-color="#ffffff" preserveAspectRatio="xMidYMid meet" height="803" width="1000" xmlns="http://www.w3.org/2000/svg" xmlns:xlink="http://www.w3.org/1999/xlink"><g id="tight-bounds" transform="matrix(1,0,0,1,0,0)"><svg viewBox="0 0 448 360" height="360" width="448"><g><svg></svg></g><g><svg viewBox="0 0 448 360" height="360" width="448"><g><path xmlns="http://www.w3.org/2000/svg" d="M193.855 44.683c1.378 0 2.494 1.116 2.495 2.494 0 1.378-1.116 2.494-2.495 2.495h-23.846l-17.167 17.167c-0.973 0.973-2.551 0.973-3.53 0-0.973-0.973-0.973-2.551 0-3.529l13.644-13.645h-40.378c-11.518 0-19.151 2.688-23.815 8.113-4.739 5.519-6.66 14.056-6.66 25.63 0 0.069 0 0.137-0.006 0.206l0.212 36.692 14.692-14.692c0.973-0.973 2.551-0.973 3.53 0 0.973 0.973 0.973 2.551 0 3.53l-18.178 18.178c0.206 35.832 0.193 71.358-0.013 107.19 25.486 25.2 50.617 50.312 75.811 75.791h25.38c1.378 0 2.494 1.116 2.495 2.495 0 1.378-1.116 2.494-2.495 2.494h-20.448l25.942 26.241 0.006-0.006c8.188 8.188 15.577 12.859 22.824 13.413 7.146 0.543 14.442-2.956 22.586-11.093l28.555-28.555h-20.722c-1.378 0-2.494-1.116-2.495-2.494 0-1.378 1.116-2.494 2.495-2.495h25.711l16.625-16.625c0.973-0.973 2.551-0.973 3.529 0 0.973 0.973 0.973 2.551 0 3.53l-13.101 13.102h40.377c11.518 0 19.151-2.688 23.815-8.113 4.739-5.519 6.66-14.056 6.66-25.63h0.013l-0.212-36.898-16.014 16.014c-0.973 0.973-2.551 0.973-3.53 0-0.973-0.973-0.973-2.551 0-3.53l19.5-19.5c-0.206-35.832-0.193-71.358 0.013-107.19-25.486-25.2-50.617-50.312-75.811-75.791h-26.147c-1.378 0-2.494-1.116-2.495-2.495 0-1.378 1.116-2.494 2.495-2.494h21.215l-25.824-26.123c-0.044-0.037-0.081-0.075-0.124-0.112-8.188-8.188-15.577-12.859-22.824-13.413-7.146-0.543-14.442 2.956-22.586 11.093l-28.555 28.555h18.858zM122.578 44.683h45.367l32.078-32.078c9.248-9.248 17.81-13.195 26.484-12.534 8.568 0.649 16.956 5.824 25.985 14.854 0.05 0.05 0.094 0.094 0.137 0.143l29.278 29.615h43.508c13.071 0 21.919 3.268 27.594 9.871 5.6 6.517 7.864 16.101 7.864 28.867 0 0.081-0.006 0.156-0.012 0.23l-0.225 39.742 28.43 28.112 0.006-0.006c9.03 9.03 14.206 17.411 14.854 25.985 0.661 8.674-3.293 17.236-12.534 26.484l-30.768 30.768 0.237 41.843h0.012c0 12.765-2.27 22.35-7.864 28.867-5.675 6.604-14.524 9.872-27.594 9.871h-45.366l-32.078 32.078c-9.248 9.248-17.81 13.195-26.484 12.534-8.568-0.649-16.956-5.824-25.985-14.854l0.006-0.006-29.421-29.758h-43.509c-13.071 0-21.919-3.268-27.594-9.872-5.6-6.517-7.864-16.101-7.863-28.866h0.012l0.231-39.972-28.293-27.969c-0.05-0.044-0.1-0.087-0.143-0.137-9.03-9.03-14.206-17.411-14.854-25.985-0.661-8.674 3.293-17.236 12.534-26.484l30.768-30.768-0.237-41.607c-0.006-0.075-0.012-0.156-0.012-0.23 0-12.765 2.27-22.35 7.864-28.867 5.675-6.604 14.524-9.872 27.594-9.871zM87.682 179.997l-0.274-47.724-27.276 27.276c-8.138 8.138-11.636 15.44-11.094 22.587 0.549 7.246 5.226 14.642 13.413 22.823 0.037 0.037 0.081 0.081 0.113 0.125l24.837 24.551 0.281-49.644zM92.303 241.483l-0.2 35.09h0.013c0 11.58 1.921 20.117 6.66 25.63 4.664 5.432 12.297 8.113 23.815 8.113h38.576l-33.55-33.936-35.308-34.903zM325.415 49.672h-38.575l33.549 33.936 35.308 34.902 0.2-34.884c-0.006-0.069-0.006-0.137-0.007-0.205 0-11.58-1.921-20.117-6.66-25.63-4.664-5.432-12.297-8.113-23.815-8.113zM360.599 130.352l-0.281 49.645 0.274 47.724 27.276-27.276c8.138-8.138 11.636-15.44 11.094-22.587-0.549-7.252-5.226-14.642-13.413-22.824l0.006-0.006-24.956-24.669z" fill="#ba3b0a" fill-rule="nonzero" stroke="none" stroke-width="1" stroke-linecap="butt" stroke-linejoin="miter" stroke-miterlimit="10" stroke-dasharray="" stroke-dashoffset="0" font-family="none" font-weight="none" font-size="none" text-anchor="none" style="mix-blend-mode: normal" data-fill-palette-color="tertiary"></path></g><g transform="matrix(1,0,0,1,112,130.86707462230788)"><svg viewBox="0 0 224 98.2658507553842" height="98.2658507553842" width="224"><g><svg viewBox="0 0 224 98.2658507553842" height="98.2658507553842" width="224"><g><svg viewBox="0 0 224 98.2658507553842" height="98.2658507553842" width="224"><g><svg viewBox="0 0 224 98.2658507553842" height="98.2658507553842" width="224"><g id="textblocktransform"><svg viewBox="0 0 224 98.2658507553842" height="98.2658507553842" width="224" id="textblock"><g><svg viewBox="0 0 224 71.80458474257799" height="71.80458474257799" width="224"><g transform="matrix(1,0,0,1,0,0)"><svg width="224" viewBox="-0.05000000074505806 -42.400001525878906 133.04000854492188 42.650001525878906" height="71.80458474257799" data-palette-color="#ba3b0a"><path d="M11.6 0.25Q9.75 0.25 8.95-0.58 8.15-1.4 8.15-3.7L8.15-3.7Q8.15-5.25 8.47-7.68 8.8-10.1 9.55-14.35L9.55-14.35Q10.85-22.2 11.6-27.95L11.6-27.95Q12.05-31.55 12.05-33.95L12.05-33.95Q12.05-36.2 10.4-36.2L10.4-36.2Q9.1-36.2 7.28-34.88 5.45-33.55 3.25-30.65L3.25-30.65Q2.55-29.7 1.7-29.7L1.7-29.7Q1-29.7 0.48-30.38-0.05-31.05-0.05-31.9L-0.05-31.9Q-0.05-32.7 0.28-33.52 0.6-34.35 1.35-35.4L1.35-35.4Q3.75-38.75 6.7-40.58 9.65-42.4 12.6-42.4L12.6-42.4Q15.35-42.4 16.82-40.65 18.3-38.9 18.3-35.55L18.3-35.55Q18.3-34.2 18.05-32.38 17.8-30.55 17.6-29.4 17.4-28.25 17.3-27.8L17.3-27.8Q20.15-35.95 23.7-39.18 27.25-42.4 31.5-42.4L31.5-42.4Q34.75-42.4 36.63-40.1 38.5-37.8 38.5-33.6L38.5-33.6Q38.5-31.95 38.05-29.5L38.05-29.5Q40.55-36.4 43.9-39.4 47.25-42.4 51.6-42.4L51.6-42.4Q55.1-42.4 56.98-40.15 58.85-37.9 58.85-33.85L58.85-33.85Q58.85-31.65 58.2-28.5L58.2-28.5 55.15-14.2Q54.65-11.7 54.65-9.9L54.65-9.9Q54.65-7.8 55.63-6.75 56.6-5.7 58.35-5.7L58.35-5.7Q60-5.7 61.58-6.8 63.15-7.9 65.3-10.45L65.3-10.45Q65.9-11.15 66.65-11.15L66.65-11.15Q67.3-11.15 67.67-10.55 68.05-9.95 68.05-8.9L68.05-8.9Q68.05-6.95 67.1-5.8L67.1-5.8Q64.5-2.65 61.95-1.2 59.4 0.25 56.6 0.25L56.6 0.25Q52.35 0.25 49.95-2.27 47.55-4.8 47.55-9.05L47.55-9.05Q47.55-12 48.75-17.6L48.75-17.6 50.75-26.75Q50.85-27.2 51.1-28.35 51.35-29.5 51.5-30.53 51.65-31.55 51.65-32.55L51.65-32.55Q51.65-34.3 50.98-35.18 50.3-36.05 49.05-36.05L49.05-36.05Q46.7-36.05 44.13-33.02 41.55-30 39.23-23 36.9-16 35.45-4.8L35.45-4.8Q35.1-1.8 34.23-0.78 33.35 0.25 31.4 0.25L31.4 0.25Q29.7 0.25 28.93-0.55 28.15-1.35 28.15-3.55L28.15-3.55Q28.15-5.6 28.7-8.93 29.25-12.25 30.1-16.75L30.1-16.75Q32.4-28.85 32.4-32.35L32.4-32.35Q32.4-34.25 31.68-35.15 30.95-36.05 29.5-36.05L29.5-36.05Q27.05-36.05 24.45-33.27 21.85-30.5 19.38-23.43 16.9-16.35 15.25-4.3L15.25-4.3Q14.9-1.75 14.23-0.75 13.55 0.25 11.6 0.25L11.6 0.25ZM89.5-15.35Q90.15-15.35 90.5-14.7 90.85-14.05 90.85-13.05L90.85-13.05Q90.85-10.65 89.4-10.2L89.4-10.2Q86.4-9.15 82.8-9L82.8-9Q81.85-4.8 79.05-2.27 76.25 0.25 72.7 0.25L72.7 0.25Q69.7 0.25 67.57-1.2 65.45-2.65 64.35-5.05 63.25-7.45 63.25-10.25L63.25-10.25Q63.25-14.05 64.7-17.03 66.15-20 68.7-21.68 71.25-23.35 74.35-23.35L74.35-23.35Q78.15-23.35 80.47-20.73 82.8-18.1 83.2-14.25L83.2-14.25Q85.55-14.4 88.8-15.25L88.8-15.25Q89.2-15.35 89.5-15.35L89.5-15.35ZM73.1-5.05Q74.7-5.05 75.87-6.35 77.05-7.65 77.45-10.1L77.45-10.1Q75.9-11.15 75.07-12.85 74.25-14.55 74.25-16.45L74.25-16.45Q74.25-17.25 74.4-18.05L74.4-18.05 74.15-18.05Q72.15-18.05 70.82-16.13 69.5-14.2 69.5-10.7L69.5-10.7Q69.5-7.95 70.57-6.5 71.65-5.05 73.1-5.05L73.1-5.05ZM90.1 0.25Q88.2 0.25 87.42-1.75 86.65-3.75 86.65-8.15L86.65-8.15Q86.65-14.65 88.5-20.5L88.5-20.5Q88.95-21.95 89.97-22.63 91-23.3 92.85-23.3L92.85-23.3Q93.85-23.3 94.25-23.05 94.65-22.8 94.65-22.1L94.65-22.1Q94.65-21.3 93.9-18.5L93.9-18.5Q93.4-16.5 93.1-15 92.8-13.5 92.6-11.3L92.6-11.3Q94.25-15.6 96.3-18.3 98.35-21 100.32-22.15 102.3-23.3 103.95-23.3L103.95-23.3Q107.2-23.3 107.2-20.05L107.2-20.05Q107.2-19.4 106.75-16.9L106.75-16.9Q106.35-14.9 106.35-14.4L106.35-14.4Q106.35-12.65 107.6-12.65L107.6-12.65Q109-12.65 111.2-14.85L111.2-14.85Q111.85-15.5 112.55-15.5L112.55-15.5Q113.2-15.5 113.57-14.93 113.95-14.35 113.95-13.4L113.95-13.4Q113.95-11.55 112.95-10.5L112.95-10.5Q111.55-9.05 109.67-8.03 107.8-7 105.7-7L105.7-7Q103.05-7 101.67-8.35 100.3-9.7 100.3-12L100.3-12Q100.3-12.75 100.45-13.5L100.45-13.5Q100.55-14.5 100.55-14.85L100.55-14.85Q100.55-15.65 100-15.65L100-15.65Q99.25-15.65 98.02-13.98 96.8-12.3 95.6-9.55 94.4-6.8 93.65-3.75L93.65-3.75Q93.1-1.4 92.37-0.58 91.65 0.25 90.1 0.25L90.1 0.25ZM131.59-11.15Q132.24-11.15 132.62-10.55 132.99-9.95 132.99-8.9L132.99-8.9Q132.99-6.9 132.04-5.8L132.04-5.8Q130.19-3.55 126.82-1.65 123.44 0.25 119.59 0.25L119.59 0.25Q114.34 0.25 111.44-2.6 108.54-5.45 108.54-10.4L108.54-10.4Q108.54-13.85 109.99-16.82 111.44-19.8 114.02-21.55 116.59-23.3 119.84-23.3L119.84-23.3Q122.74-23.3 124.49-21.58 126.24-19.85 126.24-16.9L126.24-16.9Q126.24-13.45 123.77-10.98 121.29-8.5 115.39-7.05L115.39-7.05Q116.64-4.75 120.14-4.75L120.14-4.75Q122.39-4.75 125.27-6.33 128.14-7.9 130.24-10.45L130.24-10.45Q130.84-11.15 131.59-11.15L131.59-11.15ZM118.99-18.4Q117.14-18.4 115.87-16.25 114.59-14.1 114.59-11.05L114.59-11.05 114.59-10.95Q117.54-11.65 119.24-13.05 120.94-14.45 120.94-16.3L120.94-16.3Q120.94-17.25 120.42-17.82 119.89-18.4 118.99-18.4L118.99-18.4Z" opacity="1" transform="matrix(1,0,0,1,0,0)" fill="#ba3b0a" class="undefined-text-0" data-fill-palette-color="primary" id="text-0"></path></svg></g></svg></g><g transform="matrix(1,0,0,1,0,82.28259696655394)"><svg viewBox="0 0 224 15.983253788830277" height="15.983253788830277" width="224"><g transform="matrix(1,0,0,1,0,0)"><svg width="224" viewBox="1.0457943677902222 -35.5 624.9942016601562 44.599998474121094" height="15.983253788830277" data-palette-color="#e8772e"><path d="M6.2-1.25L1.05-34.5Q0.9-35.05 6.1-35.05L6.1-35.05Q11.85-35.05 12-34.1L12-34.1 14.45-13.05 19.75-34.35Q20-35.1 23.65-35.1 27.3-35.1 27.55-34.4L27.55-34.4 32.75-12.95 35.65-34.2Q35.75-34.75 37.95-34.95 40.15-35.15 41.5-35.15L41.5-35.15Q46.75-35.15 46.6-34.45L46.6-34.45 40.55-1.3Q40.35-0.55 37.7-0.2 35.05 0.15 33.4 0.15L33.4 0.15Q27.2 0.15 26.9-1.25L26.9-1.25 23.5-15 19.8-1.3Q19.6-0.4 16.3 0L16.3 0Q14.6 0.15 12.9 0.15L12.9 0.15 9.7 0Q6.4-0.35 6.2-1.25L6.2-1.25ZM58.25-16.55L58.25-0.35Q58.25 0.1 54.07 0.1 49.9 0.1 49.9-0.6L49.9-0.6 49.9-34.85Q49.9-35.2 51.45-35.35 53-35.5 54.05-35.5L54.05-35.5Q58.25-35.5 58.25-34.6L58.25-34.6 58.25-24.6Q61.05-25.45 62.5-25.45L62.5-25.45Q66.3-25.45 68.5-23.43 70.7-21.4 70.7-15.9L70.7-15.9 70.7-0.4Q70.7 0.05 66.8 0.05L66.8 0.05Q62.4-0.1 62.4-0.45L62.4-0.45 62.4-15.15Q62.4-17.6 60.8-17.6L60.8-17.6Q59.7-17.6 58.25-16.55L58.25-16.55ZM77.12-2.95Q74-6.4 74-12.5 74-18.6 77.12-22.05 80.25-25.5 85.55-25.5 90.85-25.5 93.95-22.05 97.05-18.6 97.05-12.5 97.05-6.4 93.95-2.95 90.85 0.5 85.55 0.5 80.25 0.5 77.12-2.95ZM85.57-17.15Q82.75-17.15 82.75-12.55 82.75-7.95 85.57-7.95 88.4-7.95 88.4-12.55 88.4-17.15 85.57-17.15ZM109.69-34.65L109.69-0.4Q109.69 0.05 104.59 0.05L104.59 0.05Q100.59 0 100.59-0.35L100.59-0.35 100.59-34.4Q100.59-35.15 105.44-35.15L105.44-35.15Q109.69-35 109.69-34.65L109.69-34.65ZM133.09-1.35L133.09-1.35Q129.94 0.5 124.99 0.5 120.04 0.5 116.64-2.88 113.24-6.25 113.24-12.23 113.24-18.2 116.52-21.85 119.79-25.5 124.79-25.5 129.79-25.5 132.52-22.95 135.24-20.4 135.24-16.75L135.24-16.75Q135.24-8.65 125.94-8.65L125.94-8.65 122.49-8.65Q122.49-7.15 123.32-6.58 124.14-6 125.74-6L125.74-6Q129.24-6 132.39-7.6L132.39-7.6Q132.44-7.65 132.84-6.9L132.84-6.9Q134.04-4.75 134.04-3.28 134.04-1.8 133.09-1.35ZM126.84-15.8L126.84-15.8Q126.84-17.9 124.79-17.9L124.79-17.9Q123.84-17.9 123.17-17.32 122.49-16.75 122.49-15.65L122.49-15.65 122.49-14.1 125.19-14.1Q126.84-14.1 126.84-15.8ZM139.54-9L139.54-9Q143.59-6.55 145.94-6.55L145.94-6.55Q147.44-6.55 147.44-7.6L147.44-7.6Q147.44-8.35 144.84-9.55L144.84-9.55Q138.59-12.1 138.59-17.9L138.59-17.9Q138.59-21.6 141.29-23.55 143.99-25.5 147.76-25.5 151.54-25.5 154.16-24.7 156.79-23.9 156.79-22.6L156.79-22.6Q156.79-21.5 155.71-19.7 154.64-17.9 154.24-17.75L154.24-17.75Q152.09-18.95 149.59-18.95L149.59-18.95Q148.24-18.95 148.24-18L148.24-18Q148.24-17.4 148.76-16.98 149.29-16.55 150.69-15.93 152.09-15.3 153.01-14.8 153.94-14.3 155.09-13.4L155.09-13.4Q157.49-11.5 157.49-8.45L157.49-8.45Q157.49-4.45 154.84-1.98 152.19 0.5 146.84 0.5L146.84 0.5Q143.29 0.5 140.39-0.7 137.49-1.9 137.49-4L137.49-4Q137.49-5.4 138.16-6.95 138.84-8.5 139.54-9ZM163.16-2.95Q160.04-6.4 160.04-12.5 160.04-18.6 163.16-22.05 166.29-25.5 171.59-25.5 176.89-25.5 179.99-22.05 183.09-18.6 183.09-12.5 183.09-6.4 179.99-2.95 176.89 0.5 171.59 0.5 166.29 0.5 163.16-2.95ZM171.61-17.15Q168.79-17.15 168.79-12.55 168.79-7.95 171.61-7.95 174.44-7.95 174.44-12.55 174.44-17.15 171.61-17.15ZM209.28-16.3L209.28-0.25Q209.28 0.1 205.01 0.1 200.73 0.1 200.73-0.35L200.73-0.35 200.73-14.9Q200.73-17.4 199.08-17.4L199.08-17.4Q198.23-17.4 196.83-16.3L196.83-16.3 196.83-0.3Q196.83 0.2 192.56 0.2 188.28 0.2 188.28-0.35L188.28-0.35 188.28-16.7 187.03-16.7Q185.38-16.7 185.38-20.15L185.38-20.15Q185.38-21.7 185.98-23.3L185.98-23.3Q186.78-25.5 188.58-25.5 190.38-25.5 192.06-24.55 193.73-23.6 194.08-22.75L194.08-22.75Q197.18-25.5 200.96-25.5 204.73-25.5 207.03-23.15L207.03-23.15Q209.73-25.5 213.53-25.5L213.53-25.5Q221.78-25.5 221.78-15.45L221.78-15.45 221.78-0.25Q221.78 0.1 217.51 0.1 213.23 0.1 213.23-0.35L213.23-0.35 213.23-14.9Q213.23-17.4 211.58-17.4L211.58-17.4Q210.68-17.4 209.28-16.3L209.28-16.3ZM244.93-1.35L244.93-1.35Q241.78 0.5 236.83 0.5 231.88 0.5 228.48-2.88 225.08-6.25 225.08-12.23 225.08-18.2 228.36-21.85 231.63-25.5 236.63-25.5 241.63-25.5 244.36-22.95 247.08-20.4 247.08-16.75L247.08-16.75Q247.08-8.65 237.78-8.65L237.78-8.65 234.33-8.65Q234.33-7.15 235.16-6.58 235.98-6 237.58-6L237.58-6Q241.08-6 244.23-7.6L244.23-7.6Q244.28-7.65 244.68-6.9L244.68-6.9Q245.88-4.75 245.88-3.28 245.88-1.8 244.93-1.35ZM238.68-15.8L238.68-15.8Q238.68-17.9 236.63-17.9L236.63-17.9Q235.68-17.9 235.01-17.32 234.33-16.75 234.33-15.65L234.33-15.65 234.33-14.1 237.03-14.1Q238.68-14.1 238.68-15.8ZM283.48 0.1L283.48 0.1Q279.13 0.1 278.78-1.3L278.78-1.3 277.13-7.75 269.18-7.75 267.73-1.55Q267.43 0 262.93 0L262.93 0Q260.53 0 259.38-0.28 258.23-0.55 258.23-0.7L258.23-0.7 267.08-34.55Q267.08-34.95 273.93-34.95 280.78-34.95 280.78-34.55L280.78-34.55 289.43-0.65Q289.43-0.3 287.13-0.1 284.83 0.1 283.48 0.1ZM273.13-24.45L270.43-14.1 275.68-14.1 273.43-24.45 273.13-24.45ZM302.92-16.35L302.92-0.3Q302.92 0.05 299.32 0.05L299.32 0.05Q294.32-0.1 294.32-0.5L294.32-0.5 294.32-16.7 293.02-16.7Q291.72-16.7 291.32-18.9L291.32-18.9Q291.22-19.55 291.22-20.2L291.22-20.2Q291.22-21.75 291.82-23.3L291.82-23.3Q292.72-25.5 294.62-25.5 296.52-25.5 298.02-24.6 299.52-23.7 300.02-22.8L300.02-22.8Q303.17-25.5 307.52-25.5 311.87-25.5 313.82-23.15 315.77-20.8 315.77-15.45L315.77-15.45 315.77-0.45Q315.77 0.15 311.5 0.15 307.22 0.15 307.22-0.45L307.22-0.45 307.22-14.9Q307.22-17.4 305.47-17.4L305.47-17.4Q304.97-17.4 304.07-16.98 303.17-16.55 302.92-16.35L302.92-16.35ZM332.67-25.2L332.67-34.7Q332.67-35.45 336.62-35.45L336.62-35.45Q337.97-35.45 339.75-35.27 341.52-35.1 341.52-34.8L341.52-34.8 341.52-8.45 343.27-8.45Q344.52-8.45 344.92-6.2L344.92-6.2Q345.02-5.55 345.02-4.42 345.02-3.3 344.32-1.7L344.32-1.7Q343.32 0.5 341.12 0.5L341.12 0.5Q339.47 0.5 338.2-0.15 336.92-0.8 336.47-1.5L336.47-1.5 336.02-2.15Q333.27 0.5 329.12 0.5 324.97 0.5 322.02-2.95 319.07-6.4 319.07-12.58 319.07-18.75 322.17-22.13 325.27-25.5 329.92-25.5L329.92-25.5Q331.27-25.5 332.67-25.2L332.67-25.2ZM331.02-17.5L331.02-17.5Q328.22-17.5 328.22-12.45L328.22-12.45Q328.22-9.9 329.02-8.78 329.82-7.65 330.8-7.65 331.77-7.65 332.67-8.5L332.67-8.5 332.67-17Q331.82-17.5 331.02-17.5ZM356.92-17.45L356.92-17.45Q356.92-26.35 361.39-30.9 365.87-35.45 372.94-35.45 380.02-35.45 384.37-30.98 388.72-26.5 388.72-17.45L388.72-17.45Q388.72-10.5 386.02-6.25 383.32-2 378.62-0.4L378.62-0.4 383.92 3.25Q384.22 3.45 384.22 3.98 384.22 4.5 383.09 5.95 381.97 7.4 380.39 8.18 378.82 8.95 378.02 8.95 377.22 8.95 376.72 8.4L376.72 8.4 369.42 0.3Q363.82-0.75 360.37-5.33 356.92-9.9 356.92-17.45ZM372.82-25.85Q370.42-25.85 368.79-23.65 367.17-21.45 367.17-17.48 367.17-13.5 368.72-11.38 370.27-9.25 372.79-9.25 375.32-9.25 376.89-11.4 378.47-13.55 378.47-17.55 378.47-21.55 376.84-23.7 375.22-25.85 372.82-25.85ZM392.71-9.95L392.71-24.7Q392.71-25.25 397.01-25.25 401.31-25.25 401.31-24.7L401.31-24.7 401.31-10.1Q401.31-7.6 402.91-7.6L402.91-7.6Q404.11-7.6 405.61-8.65L405.61-8.65 405.61-24.7Q405.61-25.2 409.86-25.2 414.11-25.2 414.11-24.7L414.11-24.7 414.11-8.3 415.41-8.3Q417.11-8.3 417.11-5.05L417.11-5.05Q417.11-3.4 416.41-1.7L416.41-1.7Q415.41 0.5 413.71 0.5L413.71 0.5Q410.36 0.5 408.76-2.25L408.76-2.25 408.71-2.2Q405.66 0.5 402.16 0.5L402.16 0.5Q397.31 0.5 395.01-1.93 392.71-4.35 392.71-9.95L392.71-9.95ZM423.31-18.15L423.31-18.15Q421.91-20.65 421.91-22.23 421.91-23.8 422.76-24.25L422.76-24.25Q425.61-25.5 430.59-25.5 435.56-25.5 437.61-23.18 439.66-20.85 439.66-16.3L439.66-16.3 439.66-8.4 441.36-8.4Q442.21-8.4 442.69-7.4 443.16-6.4 443.16-4.65 443.16-2.9 442.29-1.2 441.41 0.5 439.91 0.5L439.91 0.5Q437.21 0.5 435.56-0.95L435.56-0.95Q434.81-1.55 434.41-2.4L434.41-2.4Q432.11 0.5 427.26 0.5L427.26 0.5Q423.61 0.5 421.11-2.1 418.61-4.7 418.61-8.25L418.61-8.25Q418.61-16.4 428.36-16.4L428.36-16.4 431.11-16.4 431.11-16.9Q431.11-18.2 430.69-18.57 430.26-18.95 428.71-18.95L428.71-18.95Q426.81-18.95 423.31-18.15ZM427.31-8.95L427.31-8.95Q427.31-7.85 427.91-7.28 428.51-6.7 429.44-6.7 430.36-6.7 431.11-7.45L431.11-7.45 431.11-11.3 429.71-11.3Q427.31-11.3 427.31-8.95ZM455.11-34.65L455.11-0.4Q455.11 0.05 450.01 0.05L450.01 0.05Q446.01 0 446.01-0.35L446.01-0.35 446.01-34.4Q446.01-35.15 450.86-35.15L450.86-35.15Q455.11-35 455.11-34.65L455.11-34.65ZM468.76-24.85L468.76-0.3Q468.76 0.1 464.18 0.1 459.61 0.1 459.61-0.25L459.61-0.25 459.61-24.8Q459.61-25.15 464.18-25.15 468.76-25.15 468.76-24.85L468.76-24.85ZM468.76-35.15L468.76-27.8Q468.76-27.45 464.18-27.45 459.61-27.45 459.61-27.75L459.61-27.75 459.61-34.95Q459.61-35.45 464.18-35.45 468.76-35.45 468.76-35.15L468.76-35.15ZM484.75-18L484.75-0.3Q484.75 0.3 480.55 0.3L480.55 0.3Q475.55 0.1 475.55-0.35L475.55-0.35 475.55-18.05 473-18.05Q472-18.05 472-21.5L472-21.5Q472-22.4 472.18-23.7 472.35-25 472.9-25L472.9-25 475.55-25 475.55-29.4Q475.55-30.4 479.78-30.4 484-30.4 484-29.6L484-29.6 484-26.4 484.05-25 488.3-25Q489.15-25 489.15-21.5 489.15-18 488.3-18L488.3-18 484.75-18ZM498.4-2L489.9-24.75Q489.9-25.3 494.48-25.3 499.05-25.3 499.2-24.8L499.2-24.8 502.8-13 506.25-24.9Q506.45-25.3 509.35-25.3L509.35-25.3Q516-25.3 515.7-24.65L515.7-24.65 503.95 8.8Q503.9 9.1 501.23 9.1 498.55 9.1 496.25 8.93 493.95 8.75 494.05 8.5L494.05 8.5 498.4-2ZM529.19-35L546.85-35Q547.69-35 547.69-30.58 547.69-26.15 546.85-26.15L546.85-26.15 537.69-26.15 537.69-20.45 543.79-20.45Q544.64-20.45 544.64-16.57 544.64-12.7 543.85-12.7L543.85-12.7 537.69-12.7 537.69-0.65Q537.69 0.05 535.82 0.28 533.94 0.5 532.69 0.5L532.69 0.5 530.35 0.4Q527.89 0.1 527.89-0.6L527.89-0.6 527.89-33.7Q527.89-34.5 528.22-34.75 528.54-35 529.19-35L529.19-35ZM551.92-2.95Q548.79-6.4 548.79-12.5 548.79-18.6 551.92-22.05 555.04-25.5 560.34-25.5 565.64-25.5 568.74-22.05 571.84-18.6 571.84-12.5 571.84-6.4 568.74-2.95 565.64 0.5 560.34 0.5 555.04 0.5 551.92-2.95ZM560.37-17.15Q557.54-17.15 557.54-12.55 557.54-7.95 560.37-7.95 563.19-7.95 563.19-12.55 563.19-17.15 560.37-17.15ZM577.56-2.95Q574.44-6.4 574.44-12.5 574.44-18.6 577.56-22.05 580.69-25.5 585.99-25.5 591.29-25.5 594.39-22.05 597.49-18.6 597.49-12.5 597.49-6.4 594.39-2.95 591.29 0.5 585.99 0.5 580.69 0.5 577.56-2.95ZM586.01-17.15Q583.19-17.15 583.19-12.55 583.19-7.95 586.01-7.95 588.84-7.95 588.84-12.55 588.84-17.15 586.01-17.15ZM613.69-25.2L613.69-34.7Q613.69-35.45 617.64-35.45L617.64-35.45Q618.99-35.45 620.76-35.27 622.54-35.1 622.54-34.8L622.54-34.8 622.54-8.45 624.29-8.45Q625.54-8.45 625.94-6.2L625.94-6.2Q626.04-5.55 626.04-4.42 626.04-3.3 625.34-1.7L625.34-1.7Q624.34 0.5 622.14 0.5L622.14 0.5Q620.49 0.5 619.21-0.15 617.94-0.8 617.49-1.5L617.49-1.5 617.04-2.15Q614.29 0.5 610.14 0.5 605.99 0.5 603.04-2.95 600.09-6.4 600.09-12.58 600.09-18.75 603.19-22.13 606.29-25.5 610.94-25.5L610.94-25.5Q612.29-25.5 613.69-25.2L613.69-25.2ZM612.04-17.5L612.04-17.5Q609.24-17.5 609.24-12.45L609.24-12.45Q609.24-9.9 610.04-8.78 610.84-7.65 611.81-7.65 612.79-7.65 613.69-8.5L613.69-8.5 613.69-17Q612.84-17.5 612.04-17.5Z" opacity="1" transform="matrix(1,0,0,1,0,0)" fill="#e8772e" class="undefined-text-1" data-fill-palette-color="secondary" id="text-1"></path></svg></g></svg></g></svg></g></svg></g></svg></g></svg></g></svg></g></svg></g><defs></defs></svg><rect width="448" height="360" fill="none" stroke="none" visibility="hidden"></rect></g></svg></g></svg>